<svg xmlns="http://www.w3.org/2000/svg" width="520" height="520" viewBox="0 0 520 520">
<rect width="100%" height="100%" rx="18" fill="#ffffff"/>
<text x="260" y="31" text-anchor="middle" fill="#24292f" font-family="Arial" font-size="18" font-weight="700">GitHub Languages</text>
<polygon points="260.0,218.8 295.7,280.6 224.3,280.6" fill="none" stroke="#d0d7de"/>
<polygon points="260.0,177.5 331.4,301.2 188.6,301.2" fill="none" stroke="#d0d7de"/>
<polygon points="260.0,136.2 367.2,321.9 152.8,321.9" fill="none" stroke="#d0d7de"/>
<polygon points="260.0,95.0 402.9,342.5 117.1,342.5" fill="none" stroke="#d0d7de"/>
<line x1="260" y1="260" x2="260.0" y2="95.0" stroke="#d0d7de"/>
<text x="260.0" y="68.0" text-anchor="middle" fill="#24292f" font-family="Arial" font-size="12">Python</text>
<line x1="260" y1="260" x2="402.9" y2="342.5" stroke="#d0d7de"/>
<text x="426.3" y="356.0" text-anchor="start" fill="#24292f" font-family="Arial" font-size="12">HTML</text>
<line x1="260" y1="260" x2="117.1" y2="342.5" stroke="#d0d7de"/>
<text x="93.7" y="356.0" text-anchor="end" fill="#24292f" font-family="Arial" font-size="12">CSS</text>
<polygon points="260.0,194.0 317.2,293.0 231.4,276.5" fill="#1f883d" fill-opacity=".20" stroke="#1f883d" stroke-width="2"/>
<circle cx="260.0" cy="194.0" r="4" fill="#1f883d"/>
<circle cx="317.2" cy="293.0" r="4" fill="#1f883d"/>
<circle cx="231.4" cy="276.5" r="4" fill="#1f883d"/>
</svg>